<mxfile host="app.diagrams.net" agent="Mozilla/5.0 (Windows NT 10.0; Win64; x64) AppleWebKit/537.36 (KHTML, like Gecko) Chrome/135.0.0.0 Safari/537.36" version="26.2.12">
  <diagram name="PÃ¡gina-1" id="3FeB3YzeLPQjRc8gAuBz">
    <mxGraphModel dx="1044" dy="622" grid="1" gridSize="10" guides="1" tooltips="1" connect="1" arrows="1" fold="1" page="1" pageScale="1" pageWidth="827" pageHeight="1169" math="0" shadow="0">
      <root>
        <mxCell id="0" />
        <mxCell id="1" parent="0" />
        <mxCell id="oLqSDIBELnfGQojf5tRH-1" value="" style="edgeStyle=orthogonalEdgeStyle;rounded=0;orthogonalLoop=1;jettySize=auto;html=1;" parent="1" source="oLqSDIBELnfGQojf5tRH-2" target="oLqSDIBELnfGQojf5tRH-4" edge="1">
          <mxGeometry relative="1" as="geometry" />
        </mxCell>
        <mxCell id="oLqSDIBELnfGQojf5tRH-2" value="INICIO" style="strokeWidth=2;html=1;shape=mxgraph.flowchart.start_1;whiteSpace=wrap;fillColor=#d5e8d4;strokeColor=#82b366;" parent="1" vertex="1">
          <mxGeometry x="360" y="370" width="100" height="60" as="geometry" />
        </mxCell>
        <mxCell id="oLqSDIBELnfGQojf5tRH-8" value="" style="edgeStyle=orthogonalEdgeStyle;rounded=0;orthogonalLoop=1;jettySize=auto;html=1;" parent="1" source="oLqSDIBELnfGQojf5tRH-4" target="oLqSDIBELnfGQojf5tRH-7" edge="1">
          <mxGeometry relative="1" as="geometry" />
        </mxCell>
        <mxCell id="oLqSDIBELnfGQojf5tRH-4" value="&lt;div&gt;&lt;br&gt;&lt;/div&gt;B[ ]&lt;div&gt;&lt;br&gt;&lt;/div&gt;&lt;div&gt;X&lt;/div&gt;" style="html=1;strokeWidth=2;shape=manualInput;whiteSpace=wrap;rounded=1;size=26;arcSize=11;fillColor=#dae8fc;strokeColor=#6c8ebf;" parent="1" vertex="1">
          <mxGeometry x="360" y="460" width="100" height="60" as="geometry" />
        </mxCell>
        <mxCell id="oLqSDIBELnfGQojf5tRH-10" value="" style="edgeStyle=orthogonalEdgeStyle;rounded=0;orthogonalLoop=1;jettySize=auto;html=1;" parent="1" source="oLqSDIBELnfGQojf5tRH-7" target="oLqSDIBELnfGQojf5tRH-9" edge="1">
          <mxGeometry relative="1" as="geometry" />
        </mxCell>
        <mxCell id="oLqSDIBELnfGQojf5tRH-7" value="CALCULA TAMANHO DO VETOR B" style="rounded=1;whiteSpace=wrap;html=1;absoluteArcSize=1;arcSize=14;strokeWidth=2;fillColor=#f5f5f5;fontColor=#333333;strokeColor=#666666;" parent="1" vertex="1">
          <mxGeometry x="360" y="570" width="100" height="60" as="geometry" />
        </mxCell>
        <mxCell id="oLqSDIBELnfGQojf5tRH-12" style="edgeStyle=orthogonalEdgeStyle;rounded=0;orthogonalLoop=1;jettySize=auto;html=1;exitX=0.5;exitY=1;exitDx=0;exitDy=0;entryX=0.5;entryY=0;entryDx=0;entryDy=0;" parent="1" source="oLqSDIBELnfGQojf5tRH-9" target="oLqSDIBELnfGQojf5tRH-11" edge="1">
          <mxGeometry relative="1" as="geometry" />
        </mxCell>
        <mxCell id="oLqSDIBELnfGQojf5tRH-9" value="A[ ] = TAMANHO B + 1" style="rounded=1;whiteSpace=wrap;html=1;absoluteArcSize=1;arcSize=14;strokeWidth=2;fillColor=#f5f5f5;fontColor=#333333;strokeColor=#666666;" parent="1" vertex="1">
          <mxGeometry x="345" y="670" width="130" height="60" as="geometry" />
        </mxCell>
        <mxCell id="oLqSDIBELnfGQojf5tRH-14" value="" style="edgeStyle=orthogonalEdgeStyle;rounded=0;orthogonalLoop=1;jettySize=auto;html=1;" parent="1" source="oLqSDIBELnfGQojf5tRH-11" target="oLqSDIBELnfGQojf5tRH-13" edge="1">
          <mxGeometry relative="1" as="geometry" />
        </mxCell>
        <mxCell id="oLqSDIBELnfGQojf5tRH-11" value="I=1, I &amp;lt;=TAMANHO, I++" style="shape=hexagon;perimeter=hexagonPerimeter2;whiteSpace=wrap;html=1;fixedSize=1;fillColor=#fff2cc;strokeColor=#d6b656;" parent="1" vertex="1">
          <mxGeometry x="325" y="760" width="170" height="40" as="geometry" />
        </mxCell>
        <mxCell id="oLqSDIBELnfGQojf5tRH-16" value="" style="edgeStyle=orthogonalEdgeStyle;rounded=0;orthogonalLoop=1;jettySize=auto;html=1;" parent="1" source="J224FbLBxmr0FtWE9uWo-1" target="oLqSDIBELnfGQojf5tRH-15" edge="1">
          <mxGeometry relative="1" as="geometry" />
        </mxCell>
        <mxCell id="oLqSDIBELnfGQojf5tRH-21" value="" style="edgeStyle=orthogonalEdgeStyle;rounded=0;orthogonalLoop=1;jettySize=auto;html=1;" parent="1" source="oLqSDIBELnfGQojf5tRH-13" target="oLqSDIBELnfGQojf5tRH-20" edge="1">
          <mxGeometry relative="1" as="geometry" />
        </mxCell>
        <mxCell id="oLqSDIBELnfGQojf5tRH-13" value="X &amp;gt; B[I]&lt;div&gt;E&lt;/div&gt;&lt;div&gt;X &amp;lt; B[I + 1]&lt;/div&gt;" style="rhombus;whiteSpace=wrap;html=1;fillColor=#ffe6cc;strokeColor=#d79b00;" parent="1" vertex="1">
          <mxGeometry x="370" y="860" width="80" height="80" as="geometry" />
        </mxCell>
        <mxCell id="oLqSDIBELnfGQojf5tRH-18" style="edgeStyle=orthogonalEdgeStyle;rounded=0;orthogonalLoop=1;jettySize=auto;html=1;exitX=0;exitY=0.5;exitDx=0;exitDy=0;" parent="1" source="oLqSDIBELnfGQojf5tRH-15" target="oLqSDIBELnfGQojf5tRH-17" edge="1">
          <mxGeometry relative="1" as="geometry" />
        </mxCell>
        <mxCell id="oLqSDIBELnfGQojf5tRH-15" value="A[I] = X&lt;div&gt;&lt;br&gt;&lt;/div&gt;&lt;div&gt;I++&lt;/div&gt;" style="whiteSpace=wrap;html=1;fillColor=#f5f5f5;strokeColor=#666666;fontColor=#333333;" parent="1" vertex="1">
          <mxGeometry x="350" y="1030" width="120" height="60" as="geometry" />
        </mxCell>
        <mxCell id="oLqSDIBELnfGQojf5tRH-23" style="edgeStyle=orthogonalEdgeStyle;rounded=0;orthogonalLoop=1;jettySize=auto;html=1;exitX=0.5;exitY=0;exitDx=0;exitDy=0;exitPerimeter=0;entryX=0;entryY=0.5;entryDx=0;entryDy=0;" parent="1" source="oLqSDIBELnfGQojf5tRH-17" target="oLqSDIBELnfGQojf5tRH-11" edge="1">
          <mxGeometry relative="1" as="geometry" />
        </mxCell>
        <mxCell id="oLqSDIBELnfGQojf5tRH-17" value="" style="verticalLabelPosition=bottom;verticalAlign=top;html=1;shape=mxgraph.flowchart.on-page_reference;fillColor=#f5f5f5;gradientColor=#b3b3b3;strokeColor=#666666;" parent="1" vertex="1">
          <mxGeometry x="90" y="885" width="30" height="30" as="geometry" />
        </mxCell>
        <mxCell id="oLqSDIBELnfGQojf5tRH-20" value="A[I] = B[I]" style="whiteSpace=wrap;html=1;fillColor=#f5f5f5;strokeColor=#666666;fontColor=#333333;" parent="1" vertex="1">
          <mxGeometry x="190" y="870" width="120" height="60" as="geometry" />
        </mxCell>
        <mxCell id="oLqSDIBELnfGQojf5tRH-22" style="edgeStyle=orthogonalEdgeStyle;rounded=0;orthogonalLoop=1;jettySize=auto;html=1;exitX=0;exitY=0.5;exitDx=0;exitDy=0;entryX=1;entryY=0.5;entryDx=0;entryDy=0;entryPerimeter=0;" parent="1" source="oLqSDIBELnfGQojf5tRH-20" target="oLqSDIBELnfGQojf5tRH-17" edge="1">
          <mxGeometry relative="1" as="geometry" />
        </mxCell>
        <mxCell id="oLqSDIBELnfGQojf5tRH-27" value="" style="edgeStyle=orthogonalEdgeStyle;rounded=0;orthogonalLoop=1;jettySize=auto;html=1;" parent="1" source="oLqSDIBELnfGQojf5tRH-24" edge="1">
          <mxGeometry relative="1" as="geometry">
            <mxPoint x="405" y="1205" as="targetPoint" />
          </mxGeometry>
        </mxCell>
        <mxCell id="oLqSDIBELnfGQojf5tRH-24" value="" style="verticalLabelPosition=bottom;verticalAlign=top;html=1;shape=mxgraph.flowchart.on-page_reference;fillColor=#f5f5f5;gradientColor=#b3b3b3;strokeColor=#666666;" parent="1" vertex="1">
          <mxGeometry x="390" y="1120" width="30" height="30" as="geometry" />
        </mxCell>
        <mxCell id="oLqSDIBELnfGQojf5tRH-25" style="edgeStyle=orthogonalEdgeStyle;rounded=0;orthogonalLoop=1;jettySize=auto;html=1;exitX=1;exitY=0.5;exitDx=0;exitDy=0;entryX=1;entryY=0.5;entryDx=0;entryDy=0;entryPerimeter=0;" parent="1" source="oLqSDIBELnfGQojf5tRH-11" target="oLqSDIBELnfGQojf5tRH-24" edge="1">
          <mxGeometry relative="1" as="geometry" />
        </mxCell>
        <mxCell id="oLqSDIBELnfGQojf5tRH-28" value="FIM" style="strokeWidth=2;html=1;shape=mxgraph.flowchart.start_1;whiteSpace=wrap;fillColor=#d5e8d4;strokeColor=#82b366;" parent="1" vertex="1">
          <mxGeometry x="355" y="1200" width="100" height="60" as="geometry" />
        </mxCell>
        <mxCell id="J224FbLBxmr0FtWE9uWo-2" value="" style="edgeStyle=orthogonalEdgeStyle;rounded=0;orthogonalLoop=1;jettySize=auto;html=1;" edge="1" parent="1" source="oLqSDIBELnfGQojf5tRH-13" target="J224FbLBxmr0FtWE9uWo-1">
          <mxGeometry relative="1" as="geometry">
            <mxPoint x="410" y="940" as="sourcePoint" />
            <mxPoint x="410" y="1000" as="targetPoint" />
          </mxGeometry>
        </mxCell>
        <mxCell id="J224FbLBxmr0FtWE9uWo-1" value="A[I] = B[I]" style="whiteSpace=wrap;html=1;fillColor=#f5f5f5;strokeColor=#666666;fontColor=#333333;" vertex="1" parent="1">
          <mxGeometry x="350" y="950" width="120" height="60" as="geometry" />
        </mxCell>
      </root>
    </mxGraphModel>
  </diagram>
</mxfile>
